<svg xmlns="http://www.w3.org/2000/svg" width="86.975" height="61.677" viewBox="0 0 86.975 61.677">
  <g id="Logo" transform="translate(-36.314 888.009)">
    <path id="Path_233" data-name="Path 233" d="M636.967-576.633H633.88v-34.54h3.087v34.54Zm10.42.048h-2.943v-31.5q0-.965-1.013-.965-.82,0-.82.965v31.5h-2.942v-34.588h2.942v1.3a2.719,2.719,0,0,1,2.645-1.5c1.423,0,2.13.933,2.13,2.8v31.983ZM658.1-579.72a2.863,2.863,0,0,1-1.3,2.46,4.7,4.7,0,0,1-2.75.772q-4.149,0-4.149-4.1v-26.387q0-4.052,4.1-4.052a5.2,5.2,0,0,1,2.75.675,2.611,2.611,0,0,1,1.351,2.364v15.2h-5.065v13.073q0,.868,1.013.868.917,0,.917-.868V-591.3H658.1v11.578Zm-3.136-15.2v-13.025q0-.868-.917-.868-1.013,0-1.013.868v13.025Zm13.459-13.556h-2.7v31.838h-3.088v-31.838h-2.7v-2.7h8.49Z" transform="translate(-545.131 -252.368)" fill="#fff" fill-rule="evenodd"/>
    <path id="Path_234" data-name="Path 234" d="M40.975-861.419a2.862,2.862,0,0,1,3.753.659,8.079,8.079,0,0,1,1.771,5.516,14.78,14.78,0,0,1-1.625,7.155c-1.076,2.052-2.348,3.268-3.793,3.654a2.993,2.993,0,0,1-3.445-1.442,9.227,9.227,0,0,1-1.323-5.334,14.916,14.916,0,0,1,1.3-6.127,7.972,7.972,0,0,1,3.359-4.081ZM69.95-876.245a8.108,8.108,0,0,1,7.87-.189c2.592,1.391,4.044,3.878,4.272,7.433a16.393,16.393,0,0,1-3.2,10.776c-2.262,3.175-4.885,5.122-7.8,5.874-2.935.759-5.3.235-7.155-1.476-1.778-1.638-2.685-4.01-2.793-7.147a16.6,16.6,0,0,1,2.188-8.651,15.38,15.38,0,0,1,6.613-6.621Zm-16.6,28.687a5.191,5.191,0,0,1,5.478,1.9,11.494,11.494,0,0,1,2.735,7.5,13.842,13.842,0,0,1-2.233,8.519c-1.539,2.231-3.378,3.308-5.475,3.308a5.762,5.762,0,0,1-4.905-2.913,12.58,12.58,0,0,1-1.918-6.979,14.574,14.574,0,0,1,1.677-7.167,7.547,7.547,0,0,1,4.642-4.167Zm-.906-39.108c1.895-1.426,3.6-1.728,5.108-.85,1.569.915,2.423,2.722,2.514,5.44a17.239,17.239,0,0,1-2.088,8.658,12.553,12.553,0,0,1-5.1,5.6c-1.853.954-3.374.851-4.586-.26-1.173-1.075-1.766-2.856-1.8-5.365a17.578,17.578,0,0,1,1.589-7.269A14.353,14.353,0,0,1,52.443-886.666Z" transform="translate(0)" fill="#fff" fill-rule="evenodd"/>
    <path id="Path_235" data-name="Path 235" d="M93.371-739.1a5.2,5.2,0,0,1,1.338-1.666c.483-.359.856-.4,1.114-.125a1.951,1.951,0,0,1,.2,1.632,7.675,7.675,0,0,1-.925,2.479,4.717,4.717,0,0,1-1.456,1.7c-.482.3-.833.267-1.051-.093a2.432,2.432,0,0,1-.077-1.676,7.768,7.768,0,0,1,.859-2.256ZM103.5-725.285a4.832,4.832,0,0,1,2.547-2.22,2.262,2.262,0,0,1,2.565.65,4.952,4.952,0,0,1,1.075,3.669,8.784,8.784,0,0,1-1.442,4.473,4.49,4.49,0,0,1-2.943,2.245,2.343,2.343,0,0,1-2.473-1.349,5.961,5.961,0,0,1-.608-3.6,8.6,8.6,0,0,1,1.28-3.869Zm-3.642-25.4a7.522,7.522,0,0,1,1.52-1.95c.59-.528,1.065-.734,1.435-.614s.53.549.438,1.3a6.674,6.674,0,0,1-.887,2.449,6.964,6.964,0,0,1-1.7,2.088q-.873.674-1.356.363c-.314-.2-.412-.654-.31-1.348a6.779,6.779,0,0,1,.858-2.283Zm15.062,7.165a8.536,8.536,0,0,1,3.127-2.994,4.427,4.427,0,0,1,3.584-.62,2.819,2.819,0,0,1,1.955,2.734,7.2,7.2,0,0,1-1.33,4.48,8.255,8.255,0,0,1-3.744,3.255,3.584,3.584,0,0,1-3.5-.158,3.226,3.226,0,0,1-1.31-2.8,6.956,6.956,0,0,1,1.223-3.9ZM96.54-744.764a7.1,7.1,0,0,0-.843,2.241,1.766,1.766,0,0,0,.2,1.506c.27.286.665.252,1.2-.12a5.624,5.624,0,0,0,1.553-1.856,7.144,7.144,0,0,0,.911-2.473c.113-.769.006-1.256-.317-1.464s-.732-.079-1.259.35a6.225,6.225,0,0,0-1.437,1.817ZM109.012-734.1a7.558,7.558,0,0,0-1.224,3.841,4.365,4.365,0,0,0,.951,3.2,2.719,2.719,0,0,0,2.941.819,5.928,5.928,0,0,0,3.279-2.65,7.944,7.944,0,0,0,1.4-4.5,3.668,3.668,0,0,0-1.5-3.223,3,3,0,0,0-3.025-.083,6.434,6.434,0,0,0-2.831,2.6ZM101.3-740.74a6.152,6.152,0,0,1,1.928-2.139c.746-.479,1.357-.57,1.829-.26a2.036,2.036,0,0,1,.67,2.038,7.564,7.564,0,0,1-1.119,3.192,5.727,5.727,0,0,1-2.12,2.215,1.34,1.34,0,0,1-1.764-.134,2.581,2.581,0,0,1-.417-2.076,7.155,7.155,0,0,1,.993-2.837Zm-2.642-2.237a6.087,6.087,0,0,1,1.647-1.964c.623-.452,1.128-.566,1.5-.324q.619.4.459,1.709a7.3,7.3,0,0,1-1.007,2.783,5.734,5.734,0,0,1-1.79,2.024c-.618.384-1.093.385-1.438.018a2.1,2.1,0,0,1-.284-1.744,7.092,7.092,0,0,1,.909-2.5Zm6,5.115a6.408,6.408,0,0,1,2.289-2.368,2.114,2.114,0,0,1,2.3-.153,2.657,2.657,0,0,1,.972,2.512,7.607,7.607,0,0,1-1.244,3.734,5.772,5.772,0,0,1-2.591,2.429,1.827,1.827,0,0,1-2.226-.381,3.2,3.2,0,0,1-.614-2.524A7.518,7.518,0,0,1,104.662-737.861Z" transform="translate(-51.174 -122.902)" fill="#8dd7f7" fill-rule="evenodd"/>
  </g>
</svg>
