<svg xmlns="http://www.w3.org/2000/svg" xmlns:xlink="http://www.w3.org/1999/xlink" width="43.286" height="43.349" viewBox="0 0 43.286 43.349">
  <defs>
    <linearGradient id="linear-gradient" y1="0.5" x2="1" y2="0.5" gradientUnits="objectBoundingBox">
      <stop offset="0" stop-color="#02a8ff"/>
      <stop offset="0.183" stop-color="#09afff"/>
      <stop offset="0.463" stop-color="#1ec5ff"/>
      <stop offset="0.804" stop-color="#40e7ff"/>
      <stop offset="1" stop-color="#57ffff"/>
    </linearGradient>
  </defs>
  <g id="Phone_icon" data-name="Phone icon" transform="translate(0 0)">
    <path id="Path_218" data-name="Path 218" d="M934.577,1220.094l.132-.128c.482-.459.863-.837,1.2-1.192a4.205,4.205,0,0,0,1.282-2.912,4.027,4.027,0,0,0-1.3-2.874l-5.139-5.158a3.894,3.894,0,0,0-2.822-1.305,4.056,4.056,0,0,0-2.866,1.3l-3.2,3.19-.306-.165c-.159-.086-.318-.167-.474-.248l-.24-.124c-.322-.16-.662-.33-.955-.512a32.575,32.575,0,0,1-7.809-7.113,19.313,19.313,0,0,1-2.587-4.084l-.139-.309.25-.228c.685-.627,1.33-1.282,1.954-1.915l.2-.2.392-.4q.2-.2.4-.4a3.81,3.81,0,0,0,0-5.807l-2.552-2.552c-.293-.294-.6-.6-.879-.9-.542-.559-1.131-1.158-1.734-1.714a3.978,3.978,0,0,0-2.814-1.25,4.114,4.114,0,0,0-2.854,1.244l-3.188,3.216a6.393,6.393,0,0,0-1.895,4.059,15.965,15.965,0,0,0,1.169,6.731,39.824,39.824,0,0,0,7.071,11.79,43.528,43.528,0,0,0,14.49,11.347,22.49,22.49,0,0,0,8.052,2.384c.181.009.379.018.559.018a6.6,6.6,0,0,0,5.006-2.121l.064-.074A19.754,19.754,0,0,1,934.577,1220.094Zm-2.729.567a4.961,4.961,0,0,1-3.871,1.651c-.15,0-.31,0-.46-.01a20.679,20.679,0,0,1-7.461-2.232,41.975,41.975,0,0,1-13.952-10.926,38.439,38.439,0,0,1-6.81-11.345,13.739,13.739,0,0,1-1.074-6.051,4.744,4.744,0,0,1,1.425-3.069l3.187-3.187a2.285,2.285,0,0,1,3.446-.01c.625.585,1.213,1.187,1.715,1.707.144.149.29.3.437.446s.3.3.451.46l2.547,2.546a2.239,2.239,0,0,1,0,3.558l-.266.269c-.181.183-.36.364-.544.541-.83.85-1.553,1.57-2.349,2.284l-.038.038a1.451,1.451,0,0,0-.371,1.651l.026.081a20.1,20.1,0,0,0,2.928,4.763l.019.021a33.805,33.805,0,0,0,8.186,7.452,12.342,12.342,0,0,0,1.105.6c.328.164.664.332.953.51.024.013.047.027.071.042a1.563,1.563,0,0,0,.734.2,1.533,1.533,0,0,0,1.09-.508l3.2-3.2a2.562,2.562,0,0,1,1.742-.838,2.375,2.375,0,0,1,1.691.835l5.154,5.153a2.3,2.3,0,0,1,.018,3.577c-.307.331-.617.632-.944.95l-.209.2A24.449,24.449,0,0,0,931.848,1220.661Z" transform="translate(-896.59 -1180.542)" fill="url(#linear-gradient)"/>
    <path id="Path_219" data-name="Path 219" d="M957.755,1198.393a.794.794,0,0,0,.134.6.756.756,0,0,0,.5.312h0a12.5,12.5,0,0,1,10.178,10.177.787.787,0,0,0,.782.659,1.075,1.075,0,0,0,.129-.011.781.781,0,0,0,.525-.322.811.811,0,0,0,.137-.6,14.078,14.078,0,0,0-11.469-11.466.851.851,0,0,0-.133-.01A.8.8,0,0,0,957.755,1198.393Z" transform="translate(-934.881 -1189.703)" fill="url(#linear-gradient)"/>
    <path id="Path_220" data-name="Path 220" d="M958.71,1176.914a.8.8,0,0,0,.658.916,21.86,21.86,0,0,1,17.821,17.823.787.787,0,0,0,.782.657.988.988,0,0,0,.139-.013.77.77,0,0,0,.644-.9v0a23.481,23.481,0,0,0-19.133-19.133.773.773,0,0,0-.135-.012A.794.794,0,0,0,958.71,1176.914Z" transform="translate(-935.48 -1176.253)" fill="url(#linear-gradient)"/>
  </g>
</svg>
